<?xml version="1.0" encoding="UTF-8" standalone="no"?>
<svg
   xml:space="preserve"
   width="358.2274"
   height="59.2017"
   viewBox="0 0 94.781 15.6638"
   version="1.1"
   id="svg9"
   sodipodi:docname="bitmap.svg"
   inkscape:version="1.4.2 (ebf0e94, 2025-05-08)"
   xmlns:inkscape="http://www.inkscape.org/namespaces/inkscape"
   xmlns:sodipodi="http://sodipodi.sourceforge.net/DTD/sodipodi-0.dtd"
   xmlns="http://www.w3.org/2000/svg"
   xmlns:svg="http://www.w3.org/2000/svg"><defs
     id="defs9" /><sodipodi:namedview
     id="namedview9"
     pagecolor="#ffffff"
     bordercolor="#000000"
     borderopacity="0.25"
     inkscape:showpageshadow="2"
     inkscape:pageopacity="0.0"
     inkscape:pagecheckerboard="0"
     inkscape:deskcolor="#d1d1d1"
     inkscape:zoom="1.8377054"
     inkscape:cx="144.47365"
     inkscape:cy="53.327372"
     inkscape:window-width="1896"
     inkscape:window-height="1011"
     inkscape:window-x="0"
     inkscape:window-y="0"
     inkscape:window-maximized="1"
     inkscape:current-layer="svg9" /><g
     transform="translate(-99.0077 -9.9138)"
     id="g9"
     style="fill:#ffffff;stroke:#ffffff"><path
       fill="none"
       stroke="#00f"
       stroke-width=".3249675"
       d="M99.1597 18.1444a12.9173 12.9173 0 0 1 .7297-1.5961c1.7732-3.2707 5.0255-5.7014 8.6645-6.4756"
       id="path3"
       style="fill:#ffffff;stroke:#ffffff" /><path
       fill="none"
       stroke="#00f"
       stroke-width=".5512975"
       d="M101.1688 25.3388a3.8249 3.8249 0 0 1-.547-.383c-.7394-.6204-1.2293-1.5302-1.3403-2.489"
       id="path4"
       style="fill:#ffffff;stroke:#ffffff" /><path
       fill="none"
       stroke="#00f"
       stroke-width=".3262"
       d="M99.1708 18.0842v4.4176"
       id="path5"
       style="fill:#ffffff;stroke:#ffffff" /><path
       fill="none"
       stroke="#00f"
       stroke-width=".325"
       d="m108.1952 18.715 81.1164.0236M108.512 10.0942l81.1163.0236"
       id="path6"
       style="fill:#ffffff;stroke:#ffffff" /><ellipse
       cx="189.4989"
       cy="14.4166"
       fill="none"
       stroke="#00f"
       stroke-width=".3797"
       rx="4.1"
       ry="4.2938"
       id="ellipse6"
       style="fill:#ffffff;stroke:#ffffff" /><path
       fill="#00f"
       stroke="#00f"
       stroke-width=".05601582"
       d="M189.395 10.14c-1.6574.0082-3.164 1.1975-3.7084 2.7376-.6875 1.7363-.0851 3.8729 1.4054 4.9967 1.2642 1.0172 3.172 1.0947 4.5237.2037 1.5738-.9818 2.3274-3.0395 1.8205-4.8144-.4232-1.6808-1.9668-3.0627-3.7263-3.1195a4.3055 4.3055 0 0 0-.315-.0042z"
       id="path7"
       style="fill:#ffffff;stroke:#ffffff" /><path
       fill="#00f"
       stroke="#00f"
       stroke-width=".05601582"
       d="M144.3264 10.1164c-.1638.3068-.033.69-.0748 1.028v7.3882c.086.3573.5425.1619.8045.2116 14.2008-.0059 28.4017.0145 42.6024-.0185.281-.0342.2305-.4015-.0026-.4677-1.5012-.7948-2.4034-2.5418-2.2335-4.2109.0867-1.1.57-2.1637 1.4175-2.8797.2745-.2914.641-.4723.9503-.7078.1663-.2652-.2157-.3827-.423-.3429-2.807-.0475-5.6157-.0217-8.4233-.0355-11.4936-.0142-22.9871-.0104-34.4807-.015l-.1369.0502z"
       id="path8"
       style="fill:#ffffff;stroke:#ffffff" /><path
       fill="#00f"
       stroke="#00f"
       stroke-width=".05601582"
       d="M126.3235 10.0664c-5.9734.0048-11.9481-.0094-17.9208.0073-3.673.8554-6.9248 3.36-8.6589 6.7128-.216.4527-.4755.904-.5964 1.3893.0105 1.4244-.0209 2.8563.0157 4.276.0727.1883.3132.149.2749.405.2085.8524.7184 1.6462 1.432 2.1599.2803.1089.3678-.2317.3567-.4394.2966-1.9766 1.4746-3.8498 3.221-4.8636.8306-.484 1.7614-.818 2.7115-.945l37.0305-.0254c.3572-.0862.1618-.5425.2115-.8045v-7.6609c-.086-.3573-.5425-.1619-.8045-.2116h-17.2732z"
       id="path9"
       style="fill:#ffffff;stroke:#ffffff" /></g><path
     style="fill:#ffffff;stroke:#ffffff;stroke-width:0.472639"
     d="M 119.81595,0.04133347 C 91.333706,0.10153096 62.841007,0.0617552 34.365396,0.20741885 24.352313,3.1606404 15.206515,8.9003081 8.4628397,16.90163 4.9274686,21.044849 1.8829082,25.819738 0.16157628,30.952755 c 0.16945974,5.661905 -0.35909836,11.40249 0.38778308,17.021873 1.29120054,2.021826 1.47362324,4.764794 3.34650784,6.528435 1.1614282,1.033807 2.3194262,3.380712 4.1205708,2.800903 1.5631527,-3.226574 1.7807622,-7.064671 3.707236,-10.195836 3.567859,-6.682784 10.32255,-11.516547 17.662166,-13.025652 45.959115,-0.158611 91.92174,0.08287 137.87826,-0.429889 1.43363,-0.381619 3.98498,0.638768 4.66584,-1.089332 0.35463,-10.20129 0.4846,-20.442364 0.015,-30.6401235 -0.0788,-2.4677705 -3.29214,-1.41238674 -4.83827,-1.72398134 -15.76214,-0.22546792 -31.52724,-0.1412713 -47.29075,-0.15781869 z"
     id="path1"
     transform="matrix(0.26458363,0,0,0.26458363,-5.0415642e-5,0)" /><path
     style="fill:#ffffff;stroke:#ffffff;stroke-width:0.472639"
     d="m 171.78114,0.2006552 c -0.46951,7.676502 -0.0688,15.5128258 -0.20141,23.2512028 0.19015,3.391386 -0.37497,6.945661 0.2713,10.238676 7.79824,0.46883 15.75614,0.06642 23.61569,0.200655 45.55785,-0.09382 91.11931,0.218508 136.67457,-0.256767 1.21111,-0.223922 4.48984,0.560439 3.80285,-1.621276 -2.15572,-2.101776 -5.05251,-3.55059 -6.43975,-6.404432 -4.23526,-6.691304 -2.76026,-16.3521813 3.63583,-21.1618334 0.84202,-1.1504252 3.54553,-1.8448041 2.70322,-3.63599311 -2.30949,-0.89750036 -5.08398,-0.16132753 -7.55123,-0.45917953 C 276.32338,-0.04984883 224.35178,0.04926091 172.3816,-0.06989113 l -0.35081,0.15806318 z"
     id="path10"
     transform="matrix(0.26458363,0,0,0.26458363,-5.0415642e-5,0)" /><path
     style="fill:#ffffff;stroke:#ffffff;stroke-width:0.472639"
     d="m 341.76916,0.36974665 c -3.85684,-0.13498299 -7.28976,1.96453925 -9.72002,4.83016945 -3.14252,2.7316358 -5.21663,6.6736889 -4.99094,10.9051059 -0.66699,5.444656 1.99028,10.928347 6.35213,14.150837 2.02946,1.793778 4.39458,3.510204 7.26824,3.127145 4.79146,0.517829 9.71913,-1.256106 12.80675,-5.012463 4.7261,-5.153715 5.98451,-13.277988 2.32444,-19.3703663 -2.74391,-5.0588021 -8.18071,-8.7429261 -14.0406,-8.63042805 z"
     id="path11"
     transform="matrix(0.26458363,0,0,0.26458363,-5.0415642e-5,0)" /></svg>
